<?xml version="1.0" standalone="no"?>
<!DOCTYPE svg PUBLIC "-//W3C//DTD SVG 20010904//EN"
 "http://www.w3.org/TR/2001/REC-SVG-20010904/DTD/svg10.dtd">
<svg version="1.0" xmlns="http://www.w3.org/2000/svg"
 width="128px" height="128px" viewBox="0 0 462.000000 681.000000"
 preserveAspectRatio="xMidYMid meet">

<g transform="translate(0.000000,681.000000) scale(0.100000,-0.100000)"
fill="#ffffff" stroke="none">
<path d="M2971 6738 c-35 -5 -96 -22 -135 -38 -63 -26 -224 -114 -251 -137 -5
-5 -30 -23 -55 -40 -167 -115 -261 -329 -245 -557 6 -83 19 -175 31 -218 5
-15 -1 -18 -35 -18 -23 0 -41 -4 -41 -10 0 -6 -28 -10 -63 -10 -112 0 -178
-37 -278 -155 -37 -45 -38 -47 -54 -132 -35 -191 -57 -389 -51 -464 11 -128
97 -371 159 -445 13 -16 41 -56 62 -88 46 -72 121 -146 338 -333 36 -32 37
-35 41 -111 4 -81 24 -144 55 -173 10 -9 57 -42 105 -73 65 -42 91 -65 102
-91 27 -66 12 -143 -41 -207 -26 -31 -34 -89 -15 -118 14 -22 24 -3 21 39 -1
26 3 42 15 52 30 24 64 111 64 162 0 89 -27 126 -159 211 -81 51 -100 78 -110
148 -12 93 -4 98 65 41 96 -81 160 -149 362 -386 117 -137 282 -431 282 -504
0 -17 -11 -88 -25 -158 -14 -70 -29 -164 -35 -209 -21 -166 -48 -279 -86 -351
-45 -88 -119 -186 -160 -215 -32 -21 -286 -93 -394 -110 -81 -14 -441 -40
-546 -40 -169 0 -367 53 -480 128 -76 50 -224 182 -249 222 -14 22 -32 48 -40
58 -95 116 -158 218 -186 299 -10 31 -17 59 -14 61 3 3 67 6 142 7 147 2 201
14 298 62 74 37 113 70 135 113 25 50 25 79 0 133 -35 73 -128 125 -251 142
-54 7 -169 -9 -209 -30 -46 -24 -102 -87 -132 -150 -24 -51 -28 -73 -28 -142
0 -96 4 -94 -105 -64 -112 30 -204 43 -303 42 -115 0 -167 -21 -211 -82 -35
-47 -38 -77 -17 -155 39 -145 149 -271 299 -338 48 -22 87 -46 87 -52 0 -7 -7
-43 -15 -79 -24 -102 -21 -266 5 -346 27 -81 48 -115 128 -212 l65 -78 -6 -59
c-17 -157 -149 -422 -293 -585 -70 -80 -138 -150 -202 -209 -37 -33 -50 -52
-43 -59 20 -20 225 180 334 326 100 134 218 384 233 495 3 28 8 52 10 52 1 0
40 -28 86 -63 118 -89 241 -161 334 -196 90 -33 207 -87 244 -111 14 -10 57
-37 95 -61 102 -63 194 -134 230 -177 73 -85 155 -243 174 -334 21 -97 100
-396 115 -431 9 -20 21 -37 27 -37 13 0 9 25 -16 110 -8 30 -38 141 -65 247
-27 105 -58 210 -69 232 -12 22 -21 45 -21 50 0 14 -68 118 -115 175 -40 49
-134 123 -240 191 -33 21 -72 46 -87 57 -34 23 -153 78 -273 125 -118 47 -267
139 -381 236 l-32 28 -5 277 c-3 219 -7 287 -20 324 -9 26 -13 49 -9 52 4 2
26 9 50 16 51 13 119 72 139 117 7 18 13 53 13 77 0 56 -15 66 -102 66 -101 0
-185 -51 -258 -157 l-15 -21 -95 46 c-155 76 -253 194 -279 336 -15 81 11 133
81 161 55 22 201 19 318 -6 237 -50 214 -41 222 -82 26 -126 200 -382 360
-531 106 -98 198 -154 324 -196 49 -17 97 -35 106 -40 43 -24 619 2 794 35 43
8 137 31 209 50 71 19 130 33 132 32 1 -2 -38 -64 -88 -138 -110 -163 -182
-303 -222 -429 -16 -52 -43 -138 -59 -190 -51 -164 -68 -264 -75 -440 -10
-278 31 -446 147 -603 61 -81 90 -105 90 -73 0 7 -7 19 -15 26 -38 32 -124
180 -148 255 -71 228 -59 531 31 825 77 251 92 291 136 378 55 110 205 337
276 418 27 31 50 63 50 71 0 8 16 38 35 68 79 124 108 217 135 425 15 114 53
321 58 315 20 -20 105 -309 122 -415 11 -69 28 -164 36 -212 23 -122 15 -377
-14 -505 -28 -117 -47 -174 -84 -248 -80 -159 -307 -412 -452 -504 -43 -27
-59 -31 -116 -31 -76 0 -125 -13 -158 -44 -36 -32 -46 -55 -31 -72 19 -23 90
-10 173 32 38 19 70 33 71 32 18 -21 38 -83 47 -146 16 -117 -6 -218 -68 -314
-27 -41 -6 -48 27 -8 84 100 103 319 40 450 l-20 41 57 36 c31 20 75 55 97 77
22 23 64 61 93 86 70 60 225 263 273 359 38 75 78 215 98 341 14 83 14 361 0
419 -5 24 -19 105 -30 180 -13 88 -34 178 -60 256 -22 66 -51 156 -64 201 -52
176 -176 411 -294 554 -193 236 -318 368 -451 476 -76 61 -248 212 -309 269
-111 105 -225 285 -274 435 -67 203 -68 232 -22 532 30 195 51 244 133 320 74
68 104 78 239 84 l102 4 25 -56 c38 -83 149 -236 203 -281 183 -151 270 -189
526 -233 176 -30 209 -27 400 30 48 14 194 97 264 151 81 61 133 183 133 313
l0 68 28 -6 c54 -13 328 -18 414 -8 98 13 167 37 151 53 -7 7 -28 6 -69 -5
-87 -22 -333 -31 -437 -16 l-86 12 -7 46 c-8 59 -39 133 -81 197 -45 68 -181
205 -204 205 -24 0 -43 -31 -64 -105 -21 -76 -68 -165 -105 -200 l-29 -28 -85
23 c-121 32 -230 26 -283 -16 -46 -37 -59 -73 -41 -110 16 -33 90 -73 135 -74
56 0 172 50 250 108 l32 24 63 -21 c91 -29 172 -48 268 -61 133 -18 124 -9
117 -105 -9 -127 -68 -245 -130 -260 -158 -38 -427 -7 -632 72 -179 70 -253
121 -329 228 -110 154 -141 248 -134 407 4 89 10 115 40 191 60 145 154 259
303 368 93 67 115 88 108 105 -3 8 1 14 11 14 9 0 16 7 16 15 0 17 -28 18
-129 3z m79 -32 c0 -2 -38 -32 -85 -66 -105 -76 -210 -178 -259 -251 -61 -93
-106 -217 -117 -325 -9 -85 -7 -106 12 -182 32 -133 125 -286 223 -371 150
-130 542 -244 772 -224 40 3 74 3 74 0 0 -3 -12 -12 -27 -20 -16 -8 -54 -29
-86 -47 -66 -36 -242 -90 -296 -90 -110 0 -400 64 -486 108 -47 23 -186 126
-228 168 -37 37 -128 168 -160 230 -26 51 -56 181 -67 299 -22 214 36 384 177
516 111 104 326 226 440 248 51 9 113 14 113 7z m606 -638 c79 -83 120 -138
153 -208 34 -71 42 -140 16 -140 -67 0 -375 66 -393 85 -2 2 12 25 31 52 46
64 72 116 92 188 10 33 19 63 22 68 10 16 31 4 79 -45z m-346 -253 l55 -17
-25 -20 c-35 -29 -128 -74 -178 -88 -71 -18 -152 17 -152 66 0 28 33 61 75 74
42 13 159 5 225 -15z m-1983 -2640 c71 -21 115 -53 141 -105 28 -57 28 -67 -5
-118 -31 -47 -117 -98 -218 -128 -79 -24 -311 -26 -325 -4 -6 8 -10 47 -10 86
0 59 5 81 31 133 33 66 86 118 140 137 48 17 186 17 246 -1z m-343 -786 c0
-77 -63 -139 -140 -139 -62 0 -154 22 -154 37 0 26 72 104 119 128 37 20 59
24 111 22 l65 -2 -1 -46z m-202 -205 c3 -21 12 -52 19 -69 8 -20 13 -113 16
-280 l4 -250 -42 45 c-51 56 -100 131 -124 190 -34 85 -31 310 5 405 8 22 11
22 62 11 51 -12 53 -14 60 -52z m1874 -1133 c-10 -15 -95 -51 -121 -51 -72 0
22 57 98 59 16 1 26 -3 23 -8z"/>
<path d="M1393 4266 c-28 -14 -84 -46 -125 -73 -40 -27 -94 -61 -120 -76 -58
-34 -233 -179 -255 -213 -12 -19 -13 -28 -4 -37 8 -8 21 -1 54 30 93 89 238
163 404 205 127 33 346 32 452 0 100 -32 116 -50 125 -141 3 -41 5 -76 3 -78
-2 -2 -27 12 -55 31 -93 62 -210 87 -295 62 -66 -19 -159 -86 -228 -165 -46
-53 -65 -66 -131 -91 -43 -17 -92 -30 -110 -30 -18 0 -40 -5 -48 -10 -13 -9
-13 -11 0 -20 29 -19 151 15 266 73 48 24 213 71 221 63 5 -5 -66 -66 -119
-102 -37 -26 -42 -27 -85 -15 -54 14 -83 0 -40 -20 15 -7 27 -15 27 -19 0 -10
-37 -20 -73 -20 -52 0 -28 -32 43 -59 53 -20 82 -24 160 -24 125 1 290 48 263
74 -8 8 -81 -9 -137 -30 -40 -16 -204 -16 -241 -1 l-30 12 35 16 c21 9 70 16
125 17 75 2 110 9 215 44 134 44 231 63 284 54 49 -8 56 14 18 48 -83 74 -316
97 -500 50 -51 -13 -96 -20 -100 -16 -11 11 78 83 145 117 57 28 69 30 135 26
83 -5 141 -28 211 -82 72 -55 81 -47 74 67 -7 124 -15 139 -79 171 -163 80
-406 78 -647 -4 -46 -16 -80 -25 -75 -21 23 20 194 131 234 152 43 22 54 23
230 22 204 -1 313 -13 341 -38 11 -11 19 -34 21 -63 2 -26 9 -47 16 -50 10 -3
12 11 10 58 -3 54 -7 66 -29 82 -38 29 -188 48 -374 48 -148 0 -164 -2 -212
-24z m462 -468 c97 -20 98 -29 5 -49 -47 -9 -128 -32 -180 -49 -57 -20 -123
-34 -165 -37 l-70 -4 45 41 c25 22 72 59 105 81 60 40 60 40 135 34 41 -4 98
-11 125 -17z"/>
<path d="M2201 3493 c-23 -81 -6 -154 48 -214 39 -42 91 -63 91 -36 0 9 -9 19
-21 22 -28 9 -78 63 -86 94 -7 25 -8 91 -1 140 5 40 -20 35 -31 -6z"/>
<path d="M2396 3487 c-78 -43 -102 -137 -36 -137 43 0 120 72 120 111 0 18 -7
32 -19 39 -25 13 -19 14 -65 -13z m54 -27 c0 -16 -53 -68 -77 -75 -33 -9 -29
11 11 51 33 33 66 45 66 24z"/>
<path d="M2600 3214 c-8 -3 -29 -12 -47 -20 -17 -8 -57 -14 -90 -14 -73 0
-106 -19 -168 -97 -54 -68 -135 -227 -135 -266 0 -65 136 -154 271 -177 125
-21 285 4 389 62 119 66 225 175 204 209 -7 12 -34 -8 -34 -26 0 -20 -96 -102
-169 -145 -149 -86 -355 -100 -501 -34 -52 24 -110 69 -110 86 0 4 24 20 53
34 28 15 66 37 82 49 28 21 35 22 105 13 125 -16 269 1 291 34 3 5 30 0 60
-11 75 -27 120 -34 151 -22 41 16 44 44 8 106 -50 88 -121 158 -189 189 -60
27 -142 41 -171 30z m140 -51 c19 -8 52 -26 74 -41 43 -30 136 -155 136 -184
0 -30 -63 -22 -195 23 -200 69 -265 61 -417 -49 -69 -51 -124 -79 -134 -69 -4
3 13 45 36 93 30 62 60 106 104 151 l62 63 60 0 c33 0 84 8 114 19 57 20 99
19 160 -6z m-82 -205 c95 -27 19 -46 -167 -40 -64 2 -72 4 -61 17 19 23 100
45 145 40 22 -3 59 -11 83 -17z"/>
</g>
</svg>
